<svg width="41" height="40" viewBox="0 0 41 40" fill="none" xmlns="http://www.w3.org/2000/svg">
<rect x="0.107666" y="0.477051" width="39.9848" height="38.9109" rx="8.36923" fill="#2196F3"/>
<path fill-rule="evenodd" clip-rule="evenodd" d="M14.7919 11.4202C14.2216 10.858 14.2216 9.94647 14.7919 9.38426L19.0365 5.19998C19.6068 4.63777 20.5314 4.63777 21.1018 5.19998L25.3463 9.38426C25.9166 9.94647 25.9166 10.858 25.3463 11.4202L21.1018 15.6045C20.5314 16.1667 19.6068 16.1667 19.0365 15.6045L14.7919 11.4202ZM19.2908 20.4539C19.0056 20.1728 19.0056 19.717 19.2908 19.4359L19.5727 19.158C19.8579 18.8769 20.3202 18.8769 20.6054 19.158L20.8873 19.4359C21.1724 19.717 21.1724 20.1728 20.8873 20.4539L20.6054 20.7318C20.3202 21.0129 19.8579 21.0129 19.5727 20.7318L19.2908 20.4539ZM24.809 18.9485C24.2387 19.5107 24.2387 20.4222 24.809 20.9844L29.0536 25.1687C29.6239 25.7309 30.5486 25.7309 31.1189 25.1687L35.3635 20.9845C35.9338 20.4222 35.9338 19.5107 35.3635 18.9485L31.1189 14.7642C30.5486 14.202 29.6239 14.202 29.0536 14.7642L24.809 18.9485ZM4.83679 20.9737C4.26648 20.4115 4.26648 19.4999 4.83679 18.9377L9.08136 14.7535C9.65167 14.1912 10.5763 14.1912 11.1466 14.7535L15.3912 18.9377C15.9615 19.5 15.9615 20.4115 15.3912 20.9737L11.1466 25.158C10.5763 25.7202 9.65167 25.7202 9.08136 25.158L4.83679 20.9737ZM14.7919 28.4447C14.2216 29.0069 14.2216 29.9184 14.7919 30.4806L19.0365 34.6649C19.6068 35.2271 20.5314 35.2271 21.1018 34.6649L25.3463 30.4806C25.9166 29.9184 25.9166 29.0069 25.3463 28.4447L21.1018 24.2604C20.5314 23.6982 19.6068 23.6982 19.0365 24.2604L14.7919 28.4447Z" fill="white"/>
</svg>
